<svg xmlns="http://www.w3.org/2000/svg" viewBox="0 9.329999923706055 158.0800018310547 36.54000473022461" data-asc="0.9052734375"><g fill="#000000"><g fill="#000000" transform="translate(0, 0)"><path d="M0 35.89L4.61 35.50Q5.13 38.87 6.99 40.56Q8.86 42.26 11.50 42.26Q14.67 42.26 16.87 39.87Q19.07 37.48 19.07 33.52Q19.07 29.76 16.96 27.59Q14.84 25.42 11.43 25.42Q9.30 25.42 7.59 26.38Q5.88 27.34 4.91 28.88L0.78 28.34L4.25 9.96L22.05 9.96L22.05 14.16L7.76 14.16L5.83 23.78Q9.06 21.53 12.60 21.53Q17.29 21.53 20.51 24.78Q23.73 28.03 23.73 33.13Q23.73 37.99 20.90 41.53Q17.46 45.87 11.50 45.87Q6.62 45.87 3.53 43.14Q0.44 40.41 0 35.89ZM34.57 25.85Q31.84 24.85 30.52 23.00Q29.20 21.14 29.20 18.55Q29.20 14.65 32.01 11.99Q34.81 9.33 39.48 9.33Q44.17 9.33 47.02 12.05Q49.88 14.77 49.88 18.68Q49.88 21.17 48.57 23.01Q47.27 24.85 44.60 25.85Q47.90 26.93 49.62 29.32Q51.34 31.71 51.34 35.03Q51.34 39.62 48.10 42.75Q44.85 45.87 39.55 45.87Q34.25 45.87 31.01 42.74Q27.76 39.60 27.76 34.91Q27.76 31.42 29.53 29.06Q31.30 26.71 34.57 25.85M33.69 18.41Q33.69 20.95 35.33 22.56Q36.96 24.17 39.58 24.17Q42.11 24.17 43.74 22.57Q45.36 20.97 45.36 18.65Q45.36 16.24 43.69 14.59Q42.02 12.94 39.53 12.94Q37.01 12.94 35.35 14.55Q33.69 16.16 33.69 18.41M32.28 34.94Q32.28 36.82 33.17 38.57Q34.06 40.33 35.82 41.30Q37.57 42.26 39.60 42.26Q42.75 42.26 44.80 40.23Q46.85 38.21 46.85 35.08Q46.85 31.91 44.74 29.83Q42.63 27.76 39.45 27.76Q36.35 27.76 34.31 29.81Q32.28 31.86 32.28 34.94ZM54.98 35.11L59.25 34.52Q59.42 38.62 60.79 40.14Q62.16 41.65 64.58 41.65Q66.36 41.65 67.65 40.83Q68.95 40.01 69.43 38.61Q69.92 37.21 69.92 34.13L69.92 9.47L74.66 9.47L74.66 33.86Q74.66 38.35 73.57 40.82Q72.49 43.29 70.13 44.58Q67.77 45.87 64.60 45.87Q59.89 45.87 57.39 43.16Q54.88 40.45 54.98 35.11ZM80.20 32.30Q80.20 25.10 84.20 21.63Q87.55 18.75 92.36 18.75Q97.71 18.75 101.10 22.25Q104.49 25.76 104.49 31.93Q104.49 36.94 102.99 39.81Q101.49 42.68 98.62 44.26Q95.75 45.85 92.36 45.85Q86.91 45.85 83.56 42.36Q80.20 38.87 80.20 32.30M84.72 32.30Q84.72 37.28 86.89 39.76Q89.06 42.24 92.36 42.24Q95.63 42.24 97.80 39.75Q99.98 37.26 99.98 32.15Q99.98 27.34 97.79 24.87Q95.61 22.39 92.36 22.39Q89.06 22.39 86.89 24.85Q84.72 27.32 84.72 32.30ZM113.70 45.26L109.62 45.26L109.62 9.47L114.01 9.47L114.01 22.24Q116.80 18.75 121.12 18.75Q123.51 18.75 125.65 19.71Q127.78 20.68 129.16 22.42Q130.54 24.17 131.32 26.64Q132.10 29.10 132.10 31.91Q132.10 38.57 128.81 42.21Q125.51 45.85 120.90 45.85Q116.31 45.85 113.70 42.02L113.70 45.26M113.65 32.10Q113.65 36.77 114.92 38.84Q116.99 42.24 120.53 42.24Q123.41 42.24 125.51 39.73Q127.61 37.23 127.61 32.28Q127.61 27.20 125.60 24.78Q123.58 22.36 120.73 22.36Q117.85 22.36 115.75 24.87Q113.65 27.37 113.65 32.10ZM135.13 45.26L135.13 41.70L151.64 22.75Q148.83 22.90 146.68 22.90L136.11 22.90L136.11 19.34L157.30 19.34L157.30 22.24L143.26 38.70L140.55 41.70Q143.51 41.48 146.09 41.48L158.08 41.48L158.08 45.26L135.13 45.26Z"/></g></g></svg>